<?xml version="1.0" encoding="UTF-8" standalone="no"?>
<!DOCTYPE svg PUBLIC "-//W3C//DTD SVG 1.1//EN"
 "http://www.w3.org/Graphics/SVG/1.1/DTD/svg11.dtd">
<!-- Generated by graphviz version 2.40.1 (20161225.0304)
 -->
<!-- This work by the UAP investigation network initiative is licensed under
CC BY&#45;SA 4.0 (https://creativecommons.org/licenses/by&#45;sa/4.0/). -->
<!-- Title: %3 Pages: 1 -->
<svg width="406pt" height="352pt"
 viewBox="0.00 0.00 405.75 352.00" xmlns="http://www.w3.org/2000/svg" xmlns:xlink="http://www.w3.org/1999/xlink">
<g id="graph0" class="graph" transform="scale(1 1) rotate(0) translate(4 348)">
<title>%3</title>
<polygon fill="#ffffff" stroke="transparent" points="-4,4 -4,-348 401.7468,-348 401.7468,4 -4,4"/>
<!-- sgn -->
<g id="node1" class="node">
<title>sgn</title>
<ellipse fill="none" stroke="#000000" cx="241.7468" cy="-180" rx="38.9931" ry="18"/>
<text text-anchor="middle" x="241.7468" y="-176.3" font-family="Times,serif" font-size="14.00" fill="#000000">sighting</text>
</g>
<!-- uap -->
<g id="node3" class="node">
<title>uap</title>
<ellipse fill="none" stroke="#000000" cx="193.7468" cy="-18" rx="27" ry="18"/>
<text text-anchor="middle" x="193.7468" y="-14.3" font-family="Times,serif" font-size="14.00" fill="#000000">file</text>
</g>
<!-- sgn&#45;&gt;uap -->
<g id="edge1" class="edge">
<title>sgn&#45;&gt;uap</title>
<path fill="none" stroke="#000000" d="M236.4266,-162.0442C228.2452,-134.432 212.4847,-81.2402 202.5746,-47.7937"/>
<polygon fill="none" stroke="#000000" points="202.5,-47.5418 196.9603,-42.9254 199.0909,-36.0362 204.6307,-40.6526 202.5,-47.5418"/>
</g>
<!-- do -->
<g id="node2" class="node">
<title>do</title>
<ellipse fill="none" stroke="#000000" cx="35.7468" cy="-180" rx="35.9954" ry="18"/>
<text text-anchor="middle" x="35.7468" y="-176.3" font-family="Times,serif" font-size="14.00" fill="#000000">actions</text>
</g>
<!-- elm -->
<g id="node8" class="node">
<title>elm</title>
<text text-anchor="end" x="173.2468" y="-95.8" font-family="Times,serif" font-size="14.00" fill="#000000">elements</text>
<text text-anchor="middle" x="143.7468" y="-80.8" font-family="Times,serif" font-size="14.00" fill="#000000">(data, doc)</text>
</g>
<!-- do&#45;&gt;elm -->
<g id="edge7" class="edge">
<title>do&#45;&gt;elm</title>
<path fill="none" stroke="#000000" d="M54.559,-164.6716C70.4576,-151.7171 93.5641,-132.8896 112.2743,-117.6443"/>
<polygon fill="#000000" stroke="#000000" points="120.2542,-111.1422 115.3444,-120.9475 116.378,-114.3005 112.5018,-117.4589 112.5018,-117.4589 112.5018,-117.4589 116.378,-114.3005 109.6593,-113.9703 120.2542,-111.1422 120.2542,-111.1422"/>
<text text-anchor="middle" x="139.2468" y="-132.8" font-family="Times,serif" font-size="14.00" fill="#000000">&lt;&lt; produce &gt;&gt;</text>
</g>
<!-- wit -->
<g id="node4" class="node">
<title>wit</title>
<text text-anchor="middle" x="159.7468" y="-249.3" font-family="Times,serif" font-size="14.00" fill="#000000">witness</text>
</g>
<!-- wit&#45;&gt;sgn -->
<g id="edge5" class="edge">
<title>wit&#45;&gt;sgn</title>
<path fill="none" stroke="#000000" d="M180.0165,-234.9551C190.8832,-225.2811 204.3864,-213.2599 215.9902,-202.9297"/>
<polygon fill="none" stroke="#000000" points="218.5225,-205.3613 223.6644,-196.0978 213.868,-200.133 218.5225,-205.3613"/>
</g>
<!-- pnm -->
<g id="node5" class="node">
<title>pnm</title>
<text text-anchor="middle" x="249.7468" y="-249.3" font-family="Times,serif" font-size="14.00" fill="#000000">phenomenon</text>
</g>
<!-- pnm&#45;&gt;sgn -->
<g id="edge2" class="edge">
<title>pnm&#45;&gt;sgn</title>
<path fill="none" stroke="#000000" d="M247.7693,-234.9551C246.8847,-226.8828 245.821,-217.1764 244.8352,-208.1817"/>
<polygon fill="none" stroke="#000000" points="248.298,-207.6495 243.7293,-198.0904 241.3396,-208.4122 248.298,-207.6495"/>
</g>
<!-- env -->
<g id="node6" class="node">
<title>env</title>
<text text-anchor="middle" x="354.7468" y="-249.3" font-family="Times,serif" font-size="14.00" fill="#000000">environment</text>
</g>
<!-- env&#45;&gt;sgn -->
<g id="edge3" class="edge">
<title>env&#45;&gt;sgn</title>
<path fill="none" stroke="#000000" d="M326.8142,-234.9551C310.4516,-224.3845 289.7511,-211.0116 272.8674,-200.1044"/>
<polygon fill="none" stroke="#000000" points="274.7283,-197.1398 264.4294,-194.6533 270.9298,-203.0196 274.7283,-197.1398"/>
</g>
<!-- act -->
<g id="node7" class="node">
<title>act</title>
<ellipse fill="none" stroke="#000000" cx="39.7468" cy="-326" rx="31.6951" ry="18"/>
<text text-anchor="middle" x="39.7468" y="-322.3" font-family="Times,serif" font-size="14.00" fill="#000000">actors</text>
</g>
<!-- act&#45;&gt;do -->
<g id="edge4" class="edge">
<title>act&#45;&gt;do</title>
<path fill="none" stroke="#000000" d="M38.5473,-307.6754C37.8975,-296.9838 37.1475,-283.2338 36.7468,-271 36.0583,-249.9781 35.8155,-226.2115 35.741,-208.2396"/>
<polygon fill="#000000" stroke="#000000" points="35.7141,-198.134 40.2408,-208.122 35.7275,-203.134 35.7408,-208.1339 35.7408,-208.1339 35.7408,-208.1339 35.7275,-203.134 31.2408,-208.1459 35.7141,-198.134 35.7141,-198.134"/>
<text text-anchor="middle" x="79.2468" y="-249.3" font-family="Times,serif" font-size="14.00" fill="#000000">&lt;&lt; perform &gt;&gt;</text>
</g>
<!-- act&#45;&gt;wit -->
<g id="edge6" class="edge">
<title>act&#45;&gt;wit</title>
<path fill="none" stroke="#000000" d="M61.4779,-312.7803C80.9296,-300.9472 109.591,-283.5115 130.9466,-270.5201"/>
</g>
<!-- elm&#45;&gt;uap -->
<g id="edge8" class="edge">
<title>elm&#45;&gt;uap</title>
<path fill="none" stroke="#000000" d="M156.6231,-72.9432C162.4254,-64.3557 169.3774,-54.0667 175.6884,-44.7264"/>
<polygon fill="none" stroke="#000000" points="175.7276,-44.6684 175.7724,-37.4574 182.446,-34.7253 182.4011,-41.9363 175.7276,-44.6684"/>
</g>
</g>
</svg>
