<?xml version="1.0" encoding="UTF-8" standalone="no"?>
<!DOCTYPE svg PUBLIC "-//W3C//DTD SVG 1.1//EN"
 "http://www.w3.org/Graphics/SVG/1.1/DTD/svg11.dtd">
<!-- Generated by graphviz version 2.40.1 (20161225.0304)
 -->
<!-- This work by the UAP investigation network initiative is licensed under
CC BY&#45;SA 4.0 (https://creativecommons.org/licenses/by&#45;sa/4.0/). -->
<!-- Title: %3 Pages: 1 -->
<svg width="499pt" height="261pt"
 viewBox="0.00 0.00 498.85 261.46" xmlns="http://www.w3.org/2000/svg" xmlns:xlink="http://www.w3.org/1999/xlink">
<g id="graph0" class="graph" transform="scale(1 1) rotate(0) translate(4 257.4582)">
<title>%3</title>
<polygon fill="#ffffff" stroke="transparent" points="-4,4 -4,-257.4582 494.8515,-257.4582 494.8515,4 -4,4"/>
<!-- uap -->
<g id="node1" class="node">
<title>uap</title>
<ellipse fill="none" stroke="#000000" cx="27" cy="-126.7291" rx="27" ry="18"/>
<text text-anchor="middle" x="27" y="-123.0291" font-family="Times,serif" font-size="14.00" fill="#000000">file</text>
</g>
<!-- idy -->
<g id="node2" class="node">
<title>idy</title>
<ellipse fill="none" stroke="#000000" cx="453.1548" cy="-126.7291" rx="37.8943" ry="18"/>
<text text-anchor="middle" x="453.1548" y="-123.0291" font-family="Times,serif" font-size="14.00" fill="#000000">identity</text>
</g>
<!-- doc -->
<g id="node3" class="node">
<title>doc</title>
<ellipse fill="none" stroke="#000000" cx="234.7291" cy="-235.4582" rx="49.2915" ry="18"/>
<text text-anchor="middle" x="234.7291" y="-231.7582" font-family="Times,serif" font-size="14.00" fill="#000000">documents</text>
</g>
<!-- rol -->
<g id="node6" class="node">
<title>rol</title>
<ellipse fill="none" stroke="#000000" cx="343.4582" cy="-126.7291" rx="27" ry="18"/>
<text text-anchor="middle" x="343.4582" y="-123.0291" font-family="Times,serif" font-size="14.00" fill="#000000">role</text>
</g>
<!-- doc&#45;&gt;rol -->
<g id="edge4" class="edge">
<title>doc&#45;&gt;rol</title>
<path fill="none" stroke="#000000" stroke-dasharray="1,5" d="M258.1951,-219.5441C278.7287,-201.6118 307.927,-172.4696 326.3435,-151.5638"/>
<polygon fill="#000000" stroke="#000000" points="329.2154,-153.5912 333.0621,-143.7194 323.8988,-149.0377 329.2154,-153.5912"/>
</g>
<!-- dat -->
<g id="node4" class="node">
<title>dat</title>
<ellipse fill="none" stroke="#000000" cx="234.7291" cy="-18" rx="27" ry="18"/>
<text text-anchor="middle" x="234.7291" y="-14.3" font-family="Times,serif" font-size="14.00" fill="#000000">data</text>
</g>
<!-- elm -->
<g id="node5" class="node">
<title>elm</title>
<ellipse fill="none" stroke="#000000" cx="126" cy="-126.7291" rx="42.4939" ry="18"/>
<text text-anchor="middle" x="126" y="-123.0291" font-family="Times,serif" font-size="14.00" fill="#000000">elements</text>
</g>
<!-- elm&#45;&gt;uap -->
<g id="edge1" class="edge">
<title>elm&#45;&gt;uap</title>
<path fill="none" stroke="#000000" d="M83.7279,-126.7291C77.9551,-126.7291 72.0483,-126.7291 66.3307,-126.7291"/>
<polygon fill="#000000" stroke="#000000" points="66.2415,-126.7292 60.2415,-130.7291 54.2415,-126.7291 60.2415,-122.7291 66.2415,-126.7292"/>
</g>
<!-- elm&#45;&gt;doc -->
<g id="edge2" class="edge">
<title>elm&#45;&gt;doc</title>
<path fill="none" stroke="#000000" d="M142.9889,-143.718C163.296,-164.0251 197.0882,-197.8173 217.5006,-218.2297"/>
</g>
<!-- elm&#45;&gt;dat -->
<g id="edge3" class="edge">
<title>elm&#45;&gt;dat</title>
<path fill="none" stroke="#000000" d="M142.9889,-109.7402C164.0127,-88.7164 199.4903,-53.2387 219.6108,-33.1183"/>
</g>
<!-- rol&#45;&gt;idy -->
<g id="edge6" class="edge">
<title>rol&#45;&gt;idy</title>
<path fill="none" stroke="#000000" d="M370.5742,-126.7291C380.3468,-126.7291 391.7135,-126.7291 402.8306,-126.7291"/>
<polygon fill="#000000" stroke="#000000" points="403.1778,-126.7292 409.1778,-122.7291 415.1778,-126.7291 409.1778,-130.7291 403.1778,-126.7292"/>
</g>
<!-- rol&#45;&gt;doc -->
<g id="edge8" class="edge">
<title>rol&#45;&gt;doc</title>
<path fill="none" stroke="#000000" d="M323.9108,-139.2684C303.5275,-156.5546 272.0757,-187.7439 252.4105,-209.9812"/>
<polygon fill="#000000" stroke="#000000" points="249.614,-207.865 245.741,-217.7266 254.9184,-212.4326 249.614,-207.865"/>
</g>
<!-- rol&#45;&gt;dat -->
<g id="edge5" class="edge">
<title>rol&#45;&gt;dat</title>
<path fill="none" stroke="#000000" stroke-dasharray="1,5" d="M332.992,-109.654C316.6865,-89.9734 285.1431,-57.9638 262.1205,-37.3838"/>
<polygon fill="#000000" stroke="#000000" points="264.2068,-34.559 254.3714,-30.6199 259.6036,-39.8327 264.2068,-34.559"/>
</g>
<!-- rol&#45;&gt;dat -->
<g id="edge7" class="edge">
<title>rol&#45;&gt;dat</title>
<path fill="none" stroke="#000000" d="M323.9108,-114.1897C303.2998,-96.7104 271.3715,-65.0155 251.7558,-42.7349"/>
<polygon fill="#000000" stroke="#000000" points="254.2922,-40.3158 245.1298,-34.996 248.9749,-44.8684 254.2922,-40.3158"/>
</g>
</g>
</svg>
